<!--
  - AvM Staff Mod
  - Copyright (c) 2024 opekope2
  -
  - This mod is free software: you can redistribute it and/or modify
  - it under the terms of the GNU Lesser General Public License as published by
  - the Free Software Foundation, either version 3 of the License, or
  - (at your option) any later version.
  -
  - This mod is distributed in the hope that it will be useful,
  - but WITHOUT ANY WARRANTY; without even the implied warranty of
  - MERCHANTABILITY or FITNESS FOR A PARTICULAR PURPOSE. See the
  - GNU Lesser General Public License for more details.
  -
  - You should have received a copy of the GNU Lesser General Public License
  - along with this mod. If not, see <https://www.gnu.org/licenses/>.
  -->

<svg viewBox="0 0 36 36" shape-rendering="crispEdges" xmlns="http://www.w3.org/2000/svg">
    <g transform="translate(10 10) rotate(45 8 8)">
        <rect x="0" y="0" style="fill: #c77e4f" width="1" height="1"/>
        <rect x="1" y="0" style="fill: #c77e4f" width="1" height="1"/>
        <rect x="2" y="0" style="fill: #c77e4f" width="1" height="1"/>
        <rect x="3" y="0" style="fill: #ce8f66" width="1" height="1"/>
        <rect x="4" y="0" style="fill: #a66030" width="1" height="1"/>
        <rect x="5" y="0" style="fill: #ce8f66" width="1" height="1"/>
        <rect x="6" y="0" style="fill: #c77e4f" width="1" height="1"/>
        <rect x="7" y="0" style="fill: #c77e4f" width="1" height="1"/>
        <rect x="8" y="0" style="fill: #c77e4f" width="1" height="1"/>
        <rect x="9" y="0" style="fill: #c77e4f" width="1" height="1"/>
        <rect x="10" y="0" style="fill: #c77e4f" width="1" height="1"/>
        <rect x="11" y="0" style="fill: #ce8f66" width="1" height="1"/>
        <rect x="12" y="0" style="fill: #a66030" width="1" height="1"/>
        <rect x="13" y="0" style="fill: #ce8f66" width="1" height="1"/>
        <rect x="14" y="0" style="fill: #c77e4f" width="1" height="1"/>
        <rect x="15" y="0" style="fill: #c77e4f" width="1" height="1"/>
        <rect x="0" y="1" style="fill: #c77e4f" width="1" height="1"/>
        <rect x="1" y="1" style="fill: #c77e4f" width="1" height="1"/>
        <rect x="2" y="1" style="fill: #ce8f66" width="1" height="1"/>
        <rect x="3" y="1" style="fill: #a66030" width="1" height="1"/>
        <rect x="4" y="1" style="fill: #d7b49d" width="1" height="1"/>
        <rect x="5" y="1" style="fill: #a66030" width="1" height="1"/>
        <rect x="6" y="1" style="fill: #ce8f66" width="1" height="1"/>
        <rect x="7" y="1" style="fill: #c77e4f" width="1" height="1"/>
        <rect x="8" y="1" style="fill: #c77e4f" width="1" height="1"/>
        <rect x="9" y="1" style="fill: #c77e4f" width="1" height="1"/>
        <rect x="10" y="1" style="fill: #ce8f66" width="1" height="1"/>
        <rect x="11" y="1" style="fill: #a66030" width="1" height="1"/>
        <rect x="12" y="1" style="fill: #d7b49d" width="1" height="1"/>
        <rect x="13" y="1" style="fill: #a66030" width="1" height="1"/>
        <rect x="14" y="1" style="fill: #ce8f66" width="1" height="1"/>
        <rect x="15" y="1" style="fill: #c77e4f" width="1" height="1"/>
        <rect x="0" y="2" style="fill: #c77e4f" width="1" height="1"/>
        <rect x="1" y="2" style="fill: #ce8f66" width="1" height="1"/>
        <rect x="2" y="2" style="fill: #a66030" width="1" height="1"/>
        <rect x="3" y="2" style="fill: #d7b49d" width="1" height="1"/>
        <rect x="4" y="2" style="fill: #cfa68b" width="1" height="1"/>
        <rect x="5" y="2" style="fill: #d7b49d" width="1" height="1"/>
        <rect x="6" y="2" style="fill: #a66030" width="1" height="1"/>
        <rect x="7" y="2" style="fill: #ce8f66" width="1" height="1"/>
        <rect x="8" y="2" style="fill: #ce8f66" width="1" height="1"/>
        <rect x="9" y="2" style="fill: #ce8f66" width="1" height="1"/>
        <rect x="10" y="2" style="fill: #a66030" width="1" height="1"/>
        <rect x="11" y="2" style="fill: #d7b49d" width="1" height="1"/>
        <rect x="12" y="2" style="fill: #cfa68b" width="1" height="1"/>
        <rect x="13" y="2" style="fill: #d7b49d" width="1" height="1"/>
        <rect x="14" y="2" style="fill: #a66030" width="1" height="1"/>
        <rect x="15" y="2" style="fill: #ce8f66" width="1" height="1"/>
        <rect x="0" y="3" style="fill: #ce8f66" width="1" height="1"/>
        <rect x="1" y="3" style="fill: #a66030" width="1" height="1"/>
        <rect x="2" y="3" style="fill: #d7b49d" width="1" height="1"/>
        <rect x="3" y="3" style="fill: #cfa68b" width="1" height="1"/>
        <rect x="4" y="3" style="fill: #6f492b" width="1" height="1"/>
        <rect x="5" y="3" style="fill: #6f492b" width="1" height="1"/>
        <rect x="6" y="3" style="fill: #6f492b" width="1" height="1"/>
        <rect x="7" y="3" style="fill: #403420" width="1" height="1"/>
        <rect x="8" y="3" style="fill: #543c24" width="1" height="1"/>
        <rect x="9" y="3" style="fill: #403420" width="1" height="1"/>
        <rect x="10" y="3" style="fill: #6f492b" width="1" height="1"/>
        <rect x="11" y="3" style="fill: #6f492b" width="1" height="1"/>
        <rect x="12" y="3" style="fill: #6f492b" width="1" height="1"/>
        <rect x="13" y="3" style="fill: #cfa68b" width="1" height="1"/>
        <rect x="14" y="3" style="fill: #d7b49d" width="1" height="1"/>
        <rect x="15" y="3" style="fill: #a66030" width="1" height="1"/>
        <rect x="0" y="4" style="fill: #a66030" width="1" height="1"/>
        <rect x="1" y="4" style="fill: #c98f6b" width="1" height="1"/>
        <rect x="2" y="4" style="fill: #cfa68b" width="1" height="1"/>
        <rect x="3" y="4" style="fill: #6f492b" width="1" height="1"/>
        <rect x="4" y="4" style="fill: #d5d2dd" width="1" height="1"/>
        <rect x="5" y="4" style="fill: #d2cfda" width="1" height="1"/>
        <rect x="6" y="4" style="fill: #d2cfda" width="1" height="1"/>
        <rect x="7" y="4" style="fill: #d2cfda" width="1" height="1"/>
        <rect x="8" y="4" style="fill: #cdcad5" width="1" height="1"/>
        <rect x="9" y="4" style="fill: #c5c2cd" width="1" height="1"/>
        <rect x="10" y="4" style="fill: #c5c2cd" width="1" height="1"/>
        <rect x="11" y="4" style="fill: #c5c2cd" width="1" height="1"/>
        <rect x="12" y="4" style="fill: #c5c2cd" width="1" height="1"/>
        <rect x="13" y="4" style="fill: #6f492b" width="1" height="1"/>
        <rect x="14" y="4" style="fill: #cfa68b" width="1" height="1"/>
        <rect x="15" y="4" style="fill: #c98f6b" width="1" height="1"/>
        <rect x="0" y="5" style="fill: #bb6d3a" width="1" height="1"/>
        <rect x="1" y="5" style="fill: #a66030" width="1" height="1"/>
        <rect x="2" y="5" style="fill: #c98f6b" width="1" height="1"/>
        <rect x="3" y="5" style="fill: #6f492b" width="1" height="1"/>
        <rect x="4" y="5" style="fill: #cecbd6" width="1" height="1"/>
        <rect x="5" y="5" style="fill: #b3b0b9" width="1" height="1"/>
        <rect x="6" y="5" style="fill: #b3b0b9" width="1" height="1"/>
        <rect x="7" y="5" style="fill: #b3b0b9" width="1" height="1"/>
        <rect x="8" y="5" style="fill: #b3b0b9" width="1" height="1"/>
        <rect x="9" y="5" style="fill: #b3b0b9" width="1" height="1"/>
        <rect x="10" y="5" style="fill: #b3b0b9" width="1" height="1"/>
        <rect x="11" y="5" style="fill: #b3b0b9" width="1" height="1"/>
        <rect x="12" y="5" style="fill: #a8a5af" width="1" height="1"/>
        <rect x="13" y="5" style="fill: #6f492b" width="1" height="1"/>
        <rect x="14" y="5" style="fill: #c98f6b" width="1" height="1"/>
        <rect x="15" y="5" style="fill: #a66030" width="1" height="1"/>
        <rect x="0" y="6" style="fill: #c77e4f" width="1" height="1"/>
        <rect x="1" y="6" style="fill: #bb6d3a" width="1" height="1"/>
        <rect x="2" y="6" style="fill: #a66030" width="1" height="1"/>
        <rect x="3" y="6" style="fill: #6f492b" width="1" height="1"/>
        <rect x="4" y="6" style="fill: #cecbd6" width="1" height="1"/>
        <rect x="5" y="6" style="fill: #b3b0b9" width="1" height="1"/>
        <rect x="6" y="6" style="fill: #a85451" width="1" height="1"/>
        <rect x="7" y="6" style="fill: #b3b0b9" width="1" height="1"/>
        <rect x="8" y="6" style="fill: #a22e2c" width="1" height="1"/>
        <rect x="9" y="6" style="fill: #b3b0b9" width="1" height="1"/>
        <rect x="10" y="6" style="fill: #4e6c32" width="1" height="1"/>
        <rect x="11" y="6" style="fill: #b3b0b9" width="1" height="1"/>
        <rect x="12" y="6" style="fill: #9f9da7" width="1" height="1"/>
        <rect x="13" y="6" style="fill: #543c24" width="1" height="1"/>
        <rect x="14" y="6" style="fill: #a66030" width="1" height="1"/>
        <rect x="15" y="6" style="fill: #bb6d3a" width="1" height="1"/>
        <rect x="0" y="7" style="fill: #c77e4f" width="1" height="1"/>
        <rect x="1" y="7" style="fill: #c77e4f" width="1" height="1"/>
        <rect x="2" y="7" style="fill: #bb6d3a" width="1" height="1"/>
        <rect x="3" y="7" style="fill: #403420" width="1" height="1"/>
        <rect x="4" y="7" style="fill: #d2cfda" width="1" height="1"/>
        <rect x="5" y="7" style="fill: #b3b0b9" width="1" height="1"/>
        <rect x="6" y="7" style="fill: #b3b0b9" width="1" height="1"/>
        <rect x="7" y="7" style="fill: #b3b0b9" width="1" height="1"/>
        <rect x="8" y="7" style="fill: #b3b0b9" width="1" height="1"/>
        <rect x="9" y="7" style="fill: #b3b0b9" width="1" height="1"/>
        <rect x="10" y="7" style="fill: #b3b0b9" width="1" height="1"/>
        <rect x="11" y="7" style="fill: #b3b0b9" width="1" height="1"/>
        <rect x="12" y="7" style="fill: #918f99" width="1" height="1"/>
        <rect x="13" y="7" style="fill: #403420" width="1" height="1"/>
        <rect x="14" y="7" style="fill: #bb6d3a" width="1" height="1"/>
        <rect x="15" y="7" style="fill: #c77e4f" width="1" height="1"/>
        <rect x="0" y="8" style="fill: #c77e4f" width="1" height="1"/>
        <rect x="1" y="8" style="fill: #c77e4f" width="1" height="1"/>
        <rect x="2" y="8" style="fill: #c77e4f" width="1" height="1"/>
        <rect x="3" y="8" style="fill: #543c24" width="1" height="1"/>
        <rect x="4" y="8" style="fill: #cdcad5" width="1" height="1"/>
        <rect x="5" y="8" style="fill: #b3b0b9" width="1" height="1"/>
        <rect x="6" y="8" style="fill: #c2873e" width="1" height="1"/>
        <rect x="7" y="8" style="fill: #b3b0b9" width="1" height="1"/>
        <rect x="8" y="8" style="fill: #ce7a77" width="1" height="1"/>
        <rect x="9" y="8" style="fill: #b3b0b9" width="1" height="1"/>
        <rect x="10" y="8" style="fill: #cd3a36" width="1" height="1"/>
        <rect x="11" y="8" style="fill: #b3b0b9" width="1" height="1"/>
        <rect x="12" y="8" style="fill: #777480" width="1" height="1"/>
        <rect x="13" y="8" style="fill: #543c24" width="1" height="1"/>
        <rect x="14" y="8" style="fill: #c77e4f" width="1" height="1"/>
        <rect x="15" y="8" style="fill: #c77e4f" width="1" height="1"/>
        <rect x="0" y="9" style="fill: #c77e4f" width="1" height="1"/>
        <rect x="1" y="9" style="fill: #c77e4f" width="1" height="1"/>
        <rect x="2" y="9" style="fill: #ce8f66" width="1" height="1"/>
        <rect x="3" y="9" style="fill: #403420" width="1" height="1"/>
        <rect x="4" y="9" style="fill: #cdcad5" width="1" height="1"/>
        <rect x="5" y="9" style="fill: #b3b0b9" width="1" height="1"/>
        <rect x="6" y="9" style="fill: #b3b0b9" width="1" height="1"/>
        <rect x="7" y="9" style="fill: #b3b0b9" width="1" height="1"/>
        <rect x="8" y="9" style="fill: #b3b0b9" width="1" height="1"/>
        <rect x="9" y="9" style="fill: #b3b0b9" width="1" height="1"/>
        <rect x="10" y="9" style="fill: #b3b0b9" width="1" height="1"/>
        <rect x="11" y="9" style="fill: #b3b0b9" width="1" height="1"/>
        <rect x="12" y="9" style="fill: #777480" width="1" height="1"/>
        <rect x="13" y="9" style="fill: #403420" width="1" height="1"/>
        <rect x="14" y="9" style="fill: #ce8f66" width="1" height="1"/>
        <rect x="15" y="9" style="fill: #c77e4f" width="1" height="1"/>
        <rect x="0" y="10" style="fill: #c77e4f" width="1" height="1"/>
        <rect x="1" y="10" style="fill: #ce8f66" width="1" height="1"/>
        <rect x="2" y="10" style="fill: #a66030" width="1" height="1"/>
        <rect x="3" y="10" style="fill: #6f492b" width="1" height="1"/>
        <rect x="4" y="10" style="fill: #c5c2cd" width="1" height="1"/>
        <rect x="5" y="10" style="fill: #b3b0b9" width="1" height="1"/>
        <rect x="6" y="10" style="fill: #822523" width="1" height="1"/>
        <rect x="7" y="10" style="fill: #b3b0b9" width="1" height="1"/>
        <rect x="8" y="10" style="fill: #ce7a77" width="1" height="1"/>
        <rect x="9" y="10" style="fill: #b3b0b9" width="1" height="1"/>
        <rect x="10" y="10" style="fill: #ac6967" width="1" height="1"/>
        <rect x="11" y="10" style="fill: #b3b0b9" width="1" height="1"/>
        <rect x="12" y="10" style="fill: #777480" width="1" height="1"/>
        <rect x="13" y="10" style="fill: #6f492b" width="1" height="1"/>
        <rect x="14" y="10" style="fill: #a66030" width="1" height="1"/>
        <rect x="15" y="10" style="fill: #ce8f66" width="1" height="1"/>
        <rect x="0" y="11" style="fill: #ce8f66" width="1" height="1"/>
        <rect x="1" y="11" style="fill: #a66030" width="1" height="1"/>
        <rect x="2" y="11" style="fill: #d7b49d" width="1" height="1"/>
        <rect x="3" y="11" style="fill: #6f492b" width="1" height="1"/>
        <rect x="4" y="11" style="fill: #c5c2cd" width="1" height="1"/>
        <rect x="5" y="11" style="fill: #b3b0b9" width="1" height="1"/>
        <rect x="6" y="11" style="fill: #b3b0b9" width="1" height="1"/>
        <rect x="7" y="11" style="fill: #b3b0b9" width="1" height="1"/>
        <rect x="8" y="11" style="fill: #b3b0b9" width="1" height="1"/>
        <rect x="9" y="11" style="fill: #b3b0b9" width="1" height="1"/>
        <rect x="10" y="11" style="fill: #b3b0b9" width="1" height="1"/>
        <rect x="11" y="11" style="fill: #b3b0b9" width="1" height="1"/>
        <rect x="12" y="11" style="fill: #777480" width="1" height="1"/>
        <rect x="13" y="11" style="fill: #6f492b" width="1" height="1"/>
        <rect x="14" y="11" style="fill: #d7b49d" width="1" height="1"/>
        <rect x="15" y="11" style="fill: #a66030" width="1" height="1"/>
        <rect x="0" y="12" style="fill: #a66030" width="1" height="1"/>
        <rect x="1" y="12" style="fill: #d7b49d" width="1" height="1"/>
        <rect x="2" y="12" style="fill: #cfa68b" width="1" height="1"/>
        <rect x="3" y="12" style="fill: #6f492b" width="1" height="1"/>
        <rect x="4" y="12" style="fill: #c5c2cd" width="1" height="1"/>
        <rect x="5" y="12" style="fill: #a8a5af" width="1" height="1"/>
        <rect x="6" y="12" style="fill: #9f9da7" width="1" height="1"/>
        <rect x="7" y="12" style="fill: #918f99" width="1" height="1"/>
        <rect x="8" y="12" style="fill: #777480" width="1" height="1"/>
        <rect x="9" y="12" style="fill: #777480" width="1" height="1"/>
        <rect x="10" y="12" style="fill: #777480" width="1" height="1"/>
        <rect x="11" y="12" style="fill: #777480" width="1" height="1"/>
        <rect x="12" y="12" style="fill: #777480" width="1" height="1"/>
        <rect x="13" y="12" style="fill: #6f492b" width="1" height="1"/>
        <rect x="14" y="12" style="fill: #cfa68b" width="1" height="1"/>
        <rect x="15" y="12" style="fill: #d7b49d" width="1" height="1"/>
        <rect x="0" y="13" style="fill: #bb6d3a" width="1" height="1"/>
        <rect x="1" y="13" style="fill: #a66030" width="1" height="1"/>
        <rect x="2" y="13" style="fill: #cfa68b" width="1" height="1"/>
        <rect x="3" y="13" style="fill: #c98f6b" width="1" height="1"/>
        <rect x="4" y="13" style="fill: #6f492b" width="1" height="1"/>
        <rect x="5" y="13" style="fill: #6f492b" width="1" height="1"/>
        <rect x="6" y="13" style="fill: #543c24" width="1" height="1"/>
        <rect x="7" y="13" style="fill: #403420" width="1" height="1"/>
        <rect x="8" y="13" style="fill: #543c24" width="1" height="1"/>
        <rect x="9" y="13" style="fill: #403420" width="1" height="1"/>
        <rect x="10" y="13" style="fill: #6f492b" width="1" height="1"/>
        <rect x="11" y="13" style="fill: #6f492b" width="1" height="1"/>
        <rect x="12" y="13" style="fill: #6f492b" width="1" height="1"/>
        <rect x="13" y="13" style="fill: #c98f6b" width="1" height="1"/>
        <rect x="14" y="13" style="fill: #cfa68b" width="1" height="1"/>
        <rect x="15" y="13" style="fill: #a66030" width="1" height="1"/>
        <rect x="0" y="14" style="fill: #c77e4f" width="1" height="1"/>
        <rect x="1" y="14" style="fill: #bb6d3a" width="1" height="1"/>
        <rect x="2" y="14" style="fill: #a66030" width="1" height="1"/>
        <rect x="3" y="14" style="fill: #cfa68b" width="1" height="1"/>
        <rect x="4" y="14" style="fill: #c98f6b" width="1" height="1"/>
        <rect x="5" y="14" style="fill: #c98f6b" width="1" height="1"/>
        <rect x="6" y="14" style="fill: #a66030" width="1" height="1"/>
        <rect x="7" y="14" style="fill: #bb6d3a" width="1" height="1"/>
        <rect x="8" y="14" style="fill: #bb6d3a" width="1" height="1"/>
        <rect x="9" y="14" style="fill: #bb6d3a" width="1" height="1"/>
        <rect x="10" y="14" style="fill: #a66030" width="1" height="1"/>
        <rect x="11" y="14" style="fill: #c98f6b" width="1" height="1"/>
        <rect x="12" y="14" style="fill: #c98f6b" width="1" height="1"/>
        <rect x="13" y="14" style="fill: #cfa68b" width="1" height="1"/>
        <rect x="14" y="14" style="fill: #a66030" width="1" height="1"/>
        <rect x="15" y="14" style="fill: #bb6d3a" width="1" height="1"/>
        <rect x="0" y="15" style="fill: #c77e4f" width="1" height="1"/>
        <rect x="1" y="15" style="fill: #c77e4f" width="1" height="1"/>
        <rect x="2" y="15" style="fill: #bb6d3a" width="1" height="1"/>
        <rect x="3" y="15" style="fill: #a66030" width="1" height="1"/>
        <rect x="4" y="15" style="fill: #c98f6b" width="1" height="1"/>
        <rect x="5" y="15" style="fill: #a66030" width="1" height="1"/>
        <rect x="6" y="15" style="fill: #bb6d3a" width="1" height="1"/>
        <rect x="7" y="15" style="fill: #c77e4f" width="1" height="1"/>
        <rect x="8" y="15" style="fill: #c77e4f" width="1" height="1"/>
        <rect x="9" y="15" style="fill: #c77e4f" width="1" height="1"/>
        <rect x="10" y="15" style="fill: #bb6d3a" width="1" height="1"/>
        <rect x="11" y="15" style="fill: #a66030" width="1" height="1"/>
        <rect x="12" y="15" style="fill: #c98f6b" width="1" height="1"/>
        <rect x="13" y="15" style="fill: #a66030" width="1" height="1"/>
        <rect x="14" y="15" style="fill: #bb6d3a" width="1" height="1"/>
        <rect x="15" y="15" style="fill: #c77e4f" width="1" height="1"/>
    </g>
    <g transform="translate(16 4) rotate(45 2 14)">
        <rect x="0" y="0" style="fill: #531b2e" width="1" height="1"/>
        <rect x="1" y="0" style="fill: #6f2d43" width="1" height="1"/>
        <rect x="2" y="0" style="fill: #6f2d43" width="1" height="1"/>
        <rect x="3" y="0" style="fill: #531b2e" width="1" height="1"/>
        <rect x="0" y="1" style="fill: #6f2d43" width="1" height="1"/>
        <rect x="1" y="1" style="fill: #a4536f" width="1" height="1"/>
        <rect x="2" y="1" style="fill: #d57e8e" width="1" height="1"/>
        <rect x="3" y="1" style="fill: #6f2d43" width="1" height="1"/>
        <rect x="0" y="2" style="fill: #531b2e" width="1" height="1"/>
        <rect x="1" y="2" style="fill: #6f2d43" width="1" height="1"/>
        <rect x="2" y="2" style="fill: #6f2d43" width="1" height="1"/>
        <rect x="3" y="2" style="fill: #531b2e" width="1" height="1"/>
        <rect x="0" y="3" style="fill: #6f2d43" width="1" height="1"/>
        <rect x="1" y="3" style="fill: #a4536f" width="1" height="1"/>
        <rect x="2" y="3" style="fill: #d57e8e" width="1" height="1"/>
        <rect x="3" y="3" style="fill: #6f2d43" width="1" height="1"/>
        <rect x="0" y="4" style="fill: #431123" width="1" height="1"/>
        <rect x="1" y="4" style="fill: #531b2e" width="1" height="1"/>
        <rect x="2" y="4" style="fill: #6f2d43" width="1" height="1"/>
        <rect x="3" y="4" style="fill: #7d3850" width="1" height="1"/>
        <rect x="4" y="4" style="fill: #6f2d43" width="1" height="1"/>
        <rect x="5" y="4" style="fill: #6f2d43" width="1" height="1"/>
        <rect x="6" y="4" style="fill: #6f2d43" width="1" height="1"/>
        <rect x="7" y="4" style="fill: #6f2d43" width="1" height="1"/>
        <rect x="8" y="4" style="fill: #6f2d43" width="1" height="1"/>
        <rect x="9" y="4" style="fill: #6f2d43" width="1" height="1"/>
        <rect x="10" y="4" style="fill: #6f2d43" width="1" height="1"/>
        <rect x="11" y="4" style="fill: #531b2e" width="1" height="1"/>
        <rect x="0" y="5" style="fill: #531b2e" width="1" height="1"/>
        <rect x="1" y="5" style="fill: #6f2d43" width="1" height="1"/>
        <rect x="2" y="5" style="fill: #894259" width="1" height="1"/>
        <rect x="3" y="5" style="fill: #9b4c65" width="1" height="1"/>
        <rect x="4" y="5" style="fill: #a4536f" width="1" height="1"/>
        <rect x="5" y="5" style="fill: #a4536f" width="1" height="1"/>
        <rect x="6" y="5" style="fill: #a4536f" width="1" height="1"/>
        <rect x="7" y="5" style="fill: #a4536f" width="1" height="1"/>
        <rect x="8" y="5" style="fill: #a4536f" width="1" height="1"/>
        <rect x="9" y="5" style="fill: #a4536f" width="1" height="1"/>
        <rect x="10" y="5" style="fill: #a4536f" width="1" height="1"/>
        <rect x="11" y="5" style="fill: #9b4c65" width="1" height="1"/>
        <rect x="10" y="6" style="fill: #9b4c65" width="1" height="1"/>
        <rect x="11" y="6" style="fill: #a4536f" width="1" height="1"/>
        <rect x="10" y="7" style="fill: #9b4c65" width="1" height="1"/>
        <rect x="11" y="7" style="fill: #a4536f" width="1" height="1"/>
        <rect x="10" y="8" style="fill: #a4536f" width="1" height="1"/>
        <rect x="11" y="8" style="fill: #b15d78" width="1" height="1"/>
        <rect x="10" y="9" style="fill: #b15d78" width="1" height="1"/>
        <rect x="11" y="9" style="fill: #bd6b7f" width="1" height="1"/>
        <rect x="10" y="10" style="fill: #bd6b7f" width="1" height="1"/>
        <rect x="11" y="10" style="fill: #ca7585" width="1" height="1"/>
        <rect x="10" y="11" style="fill: #ca7585" width="1" height="1"/>
        <rect x="11" y="11" style="fill: #d57e8e" width="1" height="1"/>
        <rect x="10" y="12" style="fill: #ca7585" width="1" height="1"/>
        <rect x="11" y="12" style="fill: #d57e8e" width="1" height="1"/>
        <rect x="10" y="13" style="fill: #ca7585" width="1" height="1"/>
        <rect x="11" y="13" style="fill: #d57e8e" width="1" height="1"/>
        <rect x="10" y="14" style="fill: #ca7585" width="1" height="1"/>
        <rect x="11" y="14" style="fill: #d57e8e" width="1" height="1"/>
        <rect x="10" y="15" style="fill: #ca7585" width="1" height="1"/>
        <rect x="11" y="15" style="fill: #d57e8e" width="1" height="1"/>
        <rect x="10" y="16" style="fill: #ca7585" width="1" height="1"/>
        <rect x="11" y="16" style="fill: #d57e8e" width="1" height="1"/>
        <rect x="10" y="17" style="fill: #bd6b7f" width="1" height="1"/>
        <rect x="11" y="17" style="fill: #ca7585" width="1" height="1"/>
        <rect x="10" y="18" style="fill: #b15d78" width="1" height="1"/>
        <rect x="11" y="18" style="fill: #bd6b7f" width="1" height="1"/>
        <rect x="10" y="19" style="fill: #a4536f" width="1" height="1"/>
        <rect x="11" y="19" style="fill: #b15d78" width="1" height="1"/>
        <rect x="10" y="20" style="fill: #9b4c65" width="1" height="1"/>
        <rect x="11" y="20" style="fill: #a4536f" width="1" height="1"/>
        <rect x="10" y="21" style="fill: #9b4c65" width="1" height="1"/>
        <rect x="11" y="21" style="fill: #a4536f" width="1" height="1"/>
        <rect x="0" y="22" style="fill: #531b2e" width="1" height="1"/>
        <rect x="1" y="22" style="fill: #6f2d43" width="1" height="1"/>
        <rect x="2" y="22" style="fill: #894259" width="1" height="1"/>
        <rect x="3" y="22" style="fill: #9b4c65" width="1" height="1"/>
        <rect x="4" y="22" style="fill: #a4536f" width="1" height="1"/>
        <rect x="5" y="22" style="fill: #a4536f" width="1" height="1"/>
        <rect x="6" y="22" style="fill: #a4536f" width="1" height="1"/>
        <rect x="7" y="22" style="fill: #a4536f" width="1" height="1"/>
        <rect x="8" y="22" style="fill: #a4536f" width="1" height="1"/>
        <rect x="9" y="22" style="fill: #a4536f" width="1" height="1"/>
        <rect x="10" y="22" style="fill: #a4536f" width="1" height="1"/>
        <rect x="11" y="22" style="fill: #9b4c65" width="1" height="1"/>
        <rect x="0" y="23" style="fill: #431123" width="1" height="1"/>
        <rect x="1" y="23" style="fill: #531b2e" width="1" height="1"/>
        <rect x="2" y="23" style="fill: #6f2d43" width="1" height="1"/>
        <rect x="3" y="23" style="fill: #7d3850" width="1" height="1"/>
        <rect x="4" y="23" style="fill: #6f2d43" width="1" height="1"/>
        <rect x="5" y="23" style="fill: #6f2d43" width="1" height="1"/>
        <rect x="6" y="23" style="fill: #6f2d43" width="1" height="1"/>
        <rect x="7" y="23" style="fill: #6f2d43" width="1" height="1"/>
        <rect x="8" y="23" style="fill: #6f2d43" width="1" height="1"/>
        <rect x="9" y="23" style="fill: #6f2d43" width="1" height="1"/>
        <rect x="10" y="23" style="fill: #6f2d43" width="1" height="1"/>
        <rect x="11" y="23" style="fill: #531b2e" width="1" height="1"/>
        <rect x="0" y="24" style="fill: #6f2d43" width="1" height="1"/>
        <rect x="1" y="24" style="fill: #a4536f" width="1" height="1"/>
        <rect x="2" y="24" style="fill: #d57e8e" width="1" height="1"/>
        <rect x="3" y="24" style="fill: #6f2d43" width="1" height="1"/>
        <rect x="0" y="25" style="fill: #431123" width="1" height="1"/>
        <rect x="1" y="25" style="fill: #6f2d43" width="1" height="1"/>
        <rect x="2" y="25" style="fill: #6f2d43" width="1" height="1"/>
        <rect x="3" y="25" style="fill: #431123" width="1" height="1"/>
        <rect x="0" y="26" style="fill: #6f2d43" width="1" height="1"/>
        <rect x="1" y="26" style="fill: #a4536f" width="1" height="1"/>
        <rect x="2" y="26" style="fill: #d57e8e" width="1" height="1"/>
        <rect x="3" y="26" style="fill: #6f2d43" width="1" height="1"/>
        <rect x="0" y="27" style="fill: #431123" width="1" height="1"/>
        <rect x="1" y="27" style="fill: #531b2e" width="1" height="1"/>
        <rect x="2" y="27" style="fill: #6f2d43" width="1" height="1"/>
        <rect x="3" y="27" style="fill: #431123" width="1" height="1"/>
        <rect x="0" y="28" style="fill: #531b2e" width="1" height="1"/>
        <rect x="1" y="28" style="fill: #894259" width="1" height="1"/>
        <rect x="2" y="28" style="fill: #a4536f" width="1" height="1"/>
        <rect x="3" y="28" style="fill: #531b2e" width="1" height="1"/>
        <rect x="0" y="29" style="fill: #62263a" width="1" height="1"/>
        <rect x="1" y="29" style="fill: #a4536f" width="1" height="1"/>
        <rect x="2" y="29" style="fill: #ca7585" width="1" height="1"/>
        <rect x="3" y="29" style="fill: #6f2d43" width="1" height="1"/>
        <rect x="0" y="30" style="fill: #6f2d43" width="1" height="1"/>
        <rect x="1" y="30" style="fill: #a4536f" width="1" height="1"/>
        <rect x="2" y="30" style="fill: #d57e8e" width="1" height="1"/>
        <rect x="3" y="30" style="fill: #6f2d43" width="1" height="1"/>
        <rect x="0" y="31" style="fill: #6f2d43" width="1" height="1"/>
        <rect x="1" y="31" style="fill: #a4536f" width="1" height="1"/>
        <rect x="2" y="31" style="fill: #d57e8e" width="1" height="1"/>
        <rect x="3" y="31" style="fill: #6f2d43" width="1" height="1"/>
        <rect x="0" y="32" style="fill: #6f2d43" width="1" height="1"/>
        <rect x="1" y="32" style="fill: #a4536f" width="1" height="1"/>
        <rect x="2" y="32" style="fill: #d57e8e" width="1" height="1"/>
        <rect x="3" y="32" style="fill: #6f2d43" width="1" height="1"/>
        <rect x="0" y="33" style="fill: #6f2d43" width="1" height="1"/>
        <rect x="1" y="33" style="fill: #a4536f" width="1" height="1"/>
        <rect x="2" y="33" style="fill: #d57e8e" width="1" height="1"/>
        <rect x="3" y="33" style="fill: #6f2d43" width="1" height="1"/>
        <rect x="0" y="34" style="fill: #6f2d43" width="1" height="1"/>
        <rect x="1" y="34" style="fill: #a4536f" width="1" height="1"/>
        <rect x="2" y="34" style="fill: #e18992" width="1" height="1"/>
        <rect x="3" y="34" style="fill: #6f2d43" width="1" height="1"/>
        <rect x="0" y="35" style="fill: #6f2d43" width="1" height="1"/>
        <rect x="1" y="35" style="fill: #a4536f" width="1" height="1"/>
        <rect x="2" y="35" style="fill: #e18992" width="1" height="1"/>
        <rect x="3" y="35" style="fill: #6f2d43" width="1" height="1"/>
        <rect x="0" y="36" style="fill: #6f2d43" width="1" height="1"/>
        <rect x="1" y="36" style="fill: #a4536f" width="1" height="1"/>
        <rect x="2" y="36" style="fill: #ec9498" width="1" height="1"/>
        <rect x="3" y="36" style="fill: #6f2d43" width="1" height="1"/>
        <rect x="0" y="37" style="fill: #6f2d43" width="1" height="1"/>
        <rect x="1" y="37" style="fill: #a4536f" width="1" height="1"/>
        <rect x="2" y="37" style="fill: #ec9498" width="1" height="1"/>
        <rect x="3" y="37" style="fill: #6f2d43" width="1" height="1"/>
        <rect x="0" y="38" style="fill: #6f2d43" width="1" height="1"/>
        <rect x="1" y="38" style="fill: #a4536f" width="1" height="1"/>
        <rect x="2" y="38" style="fill: #ec9498" width="1" height="1"/>
        <rect x="3" y="38" style="fill: #6f2d43" width="1" height="1"/>
        <rect x="0" y="39" style="fill: #6f2d43" width="1" height="1"/>
        <rect x="1" y="39" style="fill: #a4536f" width="1" height="1"/>
        <rect x="2" y="39" style="fill: #ec9498" width="1" height="1"/>
        <rect x="3" y="39" style="fill: #6f2d43" width="1" height="1"/>
        <rect x="0" y="40" style="fill: #6f2d43" width="1" height="1"/>
        <rect x="1" y="40" style="fill: #a4536f" width="1" height="1"/>
        <rect x="2" y="40" style="fill: #ec9498" width="1" height="1"/>
        <rect x="3" y="40" style="fill: #6f2d43" width="1" height="1"/>
        <rect x="0" y="41" style="fill: #6f2d43" width="1" height="1"/>
        <rect x="1" y="41" style="fill: #a4536f" width="1" height="1"/>
        <rect x="2" y="41" style="fill: #ec9498" width="1" height="1"/>
        <rect x="3" y="41" style="fill: #6f2d43" width="1" height="1"/>
        <rect x="0" y="42" style="fill: #6f2d43" width="1" height="1"/>
        <rect x="1" y="42" style="fill: #a4536f" width="1" height="1"/>
        <rect x="2" y="42" style="fill: #ec9498" width="1" height="1"/>
        <rect x="3" y="42" style="fill: #6f2d43" width="1" height="1"/>
        <rect x="0" y="43" style="fill: #6f2d43" width="1" height="1"/>
        <rect x="1" y="43" style="fill: #a4536f" width="1" height="1"/>
        <rect x="2" y="43" style="fill: #ec9498" width="1" height="1"/>
        <rect x="3" y="43" style="fill: #6f2d43" width="1" height="1"/>
        <rect x="0" y="44" style="fill: #6f2d43" width="1" height="1"/>
        <rect x="1" y="44" style="fill: #a4536f" width="1" height="1"/>
        <rect x="2" y="44" style="fill: #f69ea0" width="1" height="1"/>
        <rect x="3" y="44" style="fill: #6f2d43" width="1" height="1"/>
        <rect x="0" y="45" style="fill: #6f2d43" width="1" height="1"/>
        <rect x="1" y="45" style="fill: #a4536f" width="1" height="1"/>
        <rect x="2" y="45" style="fill: #f69ea0" width="1" height="1"/>
        <rect x="3" y="45" style="fill: #6f2d43" width="1" height="1"/>
        <rect x="0" y="46" style="fill: #6f2d43" width="1" height="1"/>
        <rect x="1" y="46" style="fill: #a4536f" width="1" height="1"/>
        <rect x="2" y="46" style="fill: #f69ea0" width="1" height="1"/>
        <rect x="3" y="46" style="fill: #6f2d43" width="1" height="1"/>
        <rect x="0" y="47" style="fill: #6f2d43" width="1" height="1"/>
        <rect x="1" y="47" style="fill: #a4536f" width="1" height="1"/>
        <rect x="2" y="47" style="fill: #f69ea0" width="1" height="1"/>
        <rect x="3" y="47" style="fill: #6f2d43" width="1" height="1"/>
        <rect x="0" y="48" style="fill: #6f2d43" width="1" height="1"/>
        <rect x="1" y="48" style="fill: #a4536f" width="1" height="1"/>
        <rect x="2" y="48" style="fill: #f69ea0" width="1" height="1"/>
        <rect x="3" y="48" style="fill: #6f2d43" width="1" height="1"/>
        <rect x="0" y="49" style="fill: #6f2d43" width="1" height="1"/>
        <rect x="1" y="49" style="fill: #a4536f" width="1" height="1"/>
        <rect x="2" y="49" style="fill: #f69ea0" width="1" height="1"/>
        <rect x="3" y="49" style="fill: #6f2d43" width="1" height="1"/>
        <rect x="0" y="50" style="fill: #6f2d43" width="1" height="1"/>
        <rect x="1" y="50" style="fill: #a4536f" width="1" height="1"/>
        <rect x="2" y="50" style="fill: #f69ea0" width="1" height="1"/>
        <rect x="3" y="50" style="fill: #6f2d43" width="1" height="1"/>
        <rect x="0" y="51" style="fill: #6f2d43" width="1" height="1"/>
        <rect x="1" y="51" style="fill: #a4536f" width="1" height="1"/>
        <rect x="2" y="51" style="fill: #f69ea0" width="1" height="1"/>
        <rect x="3" y="51" style="fill: #6f2d43" width="1" height="1"/>
    </g>
</svg>
